<svg xmlns="http://www.w3.org/2000/svg" viewBox="0 0 300 80" width="600" height="160" fill="none">
  <defs>
    <linearGradient id="wave" x1="10" y1="0" x2="70" y2="0" gradientUnits="userSpaceOnUse">
      <stop offset="0%" stop-color="#06b6d4"/>
      <stop offset="100%" stop-color="#10b981"/>
    </linearGradient>
    <linearGradient id="border" x1="0" y1="0" x2="80" y2="80" gradientUnits="userSpaceOnUse">
      <stop offset="0%" stop-color="#06b6d4" stop-opacity="0.5"/>
      <stop offset="100%" stop-color="#10b981" stop-opacity="0.2"/>
    </linearGradient>
    <linearGradient id="bg" x1="0" y1="0" x2="80" y2="80" gradientUnits="userSpaceOnUse">
      <stop offset="0%" stop-color="#0c2233"/>
      <stop offset="100%" stop-color="#081a1f"/>
    </linearGradient>
    <linearGradient id="textgrad" x1="96" y1="0" x2="300" y2="0" gradientUnits="userSpaceOnUse">
      <stop offset="0%" stop-color="#06b6d4"/>
      <stop offset="100%" stop-color="#10b981"/>
    </linearGradient>
  </defs>

  <!-- Icon mark -->
  <rect x="0.75" y="0.75" width="78.5" height="78.5" rx="17" fill="url(#bg)" stroke="url(#border)" stroke-width="1.5"/>
  <!-- Wave: exact chosen path scaled to this icon size (x: 10→70, midY: 40) -->
  <path d="M10,40 C21.4,40 13.4,20 24.8,20 C36.2,20 28.2,40 39.6,40 C51,40 43,60 54.4,60 C65.8,60 57.8,40 69.2,40"
    stroke="url(#wave)" stroke-width="2.5" fill="none" stroke-linecap="round"/>

  <!-- Wordmark as paths (font-independent) -->
  <g aria-label="Lab" fill="#f1f5f9">
    <path d="M66 0V700H198V120H518V0Z" transform="translate(96.000 34.000) scale(0.028000 -0.028000)"/>
    <path d="M224 -14Q171 -14 129.0 4.5Q87 23 62.5 58.5Q38 94 38 145Q38 196 62.5 230.5Q87 265 130.5 282.5Q174 300 230 300H366V328Q366 363 344.0 385.5Q322 408 274 408Q227 408 204.0 386.5Q181 365 174 331L58 370Q70 408 96.5 439.5Q123 471 167.5 490.5Q212 510 276 510Q374 510 431.0 461.0Q488 412 488 319V134Q488 104 516 104H556V0H472Q435 0 411.0 18.0Q387 36 387 66V67H368Q364 55 350.0 35.5Q336 16 306.0 1.0Q276 -14 224 -14ZM246 88Q299 88 332.5 117.5Q366 147 366 196V206H239Q204 206 184.0 191.0Q164 176 164 149Q164 122 185.0 105.0Q206 88 246 88Z" transform="translate(110.676 34.000) scale(0.028000 -0.028000)"/>
    <path d="M368 -14Q301 -14 265.0 9.0Q229 32 212 60H194V0H70V700H196V439H214Q225 457 243.5 473.0Q262 489 292.5 499.5Q323 510 368 510Q428 510 479.0 480.5Q530 451 561.0 394.0Q592 337 592 256V240Q592 159 561.0 102.0Q530 45 479.0 15.5Q428 -14 368 -14ZM330 96Q388 96 427.0 133.5Q466 171 466 243V253Q466 325 427.5 362.5Q389 400 330 400Q272 400 233.0 362.5Q194 325 194 253V243Q194 171 233.0 133.5Q272 96 330 96Z" transform="translate(126.360 34.000) scale(0.028000 -0.028000)"/>
  </g>
  <g aria-label="Tracker" fill="url(#textgrad)">
    <path d="M228 0V580H24V700H564V580H360V0Z" transform="translate(141.600 34.000) scale(0.028000 -0.028000)"/>
    <path d="M70 0V496H194V440H212Q223 470 248.5 484.0Q274 498 308 498H368V386H306Q258 386 227.0 360.5Q196 335 196 282V0Z" transform="translate(157.564 34.000) scale(0.028000 -0.028000)"/>
    <path d="M224 -14Q171 -14 129.0 4.5Q87 23 62.5 58.5Q38 94 38 145Q38 196 62.5 230.5Q87 265 130.5 282.5Q174 300 230 300H366V328Q366 363 344.0 385.5Q322 408 274 408Q227 408 204.0 386.5Q181 365 174 331L58 370Q70 408 96.5 439.5Q123 471 167.5 490.5Q212 510 276 510Q374 510 431.0 461.0Q488 412 488 319V134Q488 104 516 104H556V0H472Q435 0 411.0 18.0Q387 36 387 66V67H368Q364 55 350.0 35.5Q336 16 306.0 1.0Q276 -14 224 -14ZM246 88Q299 88 332.5 117.5Q366 147 366 196V206H239Q204 206 184.0 191.0Q164 176 164 149Q164 122 185.0 105.0Q206 88 246 88Z" transform="translate(168.152 34.000) scale(0.028000 -0.028000)"/>
    <path d="M303 -14Q231 -14 172.5 16.0Q114 46 80.0 103.0Q46 160 46 241V255Q46 336 80.0 393.0Q114 450 172.5 480.0Q231 510 303 510Q374 510 425.0 485.0Q476 460 507.5 416.5Q539 373 549 318L427 292Q423 322 409.0 346.0Q395 370 369.5 384.0Q344 398 306 398Q268 398 237.5 381.5Q207 365 189.5 332.5Q172 300 172 253V243Q172 196 189.5 163.5Q207 131 237.5 114.5Q268 98 306 98Q363 98 392.5 127.5Q422 157 430 205L552 176Q539 123 507.5 79.5Q476 36 425.0 11.0Q374 -14 303 -14Z" transform="translate(183.836 34.000) scale(0.028000 -0.028000)"/>
    <path d="M70 0V700H196V313H214L378 496H542L313 256L550 0H388L214 197H196V0Z" transform="translate(199.744 34.000) scale(0.028000 -0.028000)"/>
    <path d="M296 -14Q222 -14 165.5 17.5Q109 49 77.5 106.5Q46 164 46 242V254Q46 332 77.0 389.5Q108 447 164.0 478.5Q220 510 294 510Q367 510 421.0 477.5Q475 445 505.0 387.5Q535 330 535 254V211H174Q176 160 212.0 128.0Q248 96 300 96Q353 96 378.0 119.0Q403 142 416 170L519 116Q505 90 478.5 59.5Q452 29 408.0 7.5Q364 -14 296 -14ZM175 305H407Q403 348 372.5 374.0Q342 400 293 400Q242 400 212.0 374.0Q182 348 175 305Z" transform="translate(215.036 34.000) scale(0.028000 -0.028000)"/>
    <path d="M70 0V496H194V440H212Q223 470 248.5 484.0Q274 498 308 498H368V386H306Q258 386 227.0 360.5Q196 335 196 282V0Z" transform="translate(230.692 34.000) scale(0.028000 -0.028000)"/>
  </g>
  <g aria-label="BLOOD WORK" fill="#7a8fa0">
    <path d="M46 0V106H140V594H46V700H404Q467 700 514.5 678.5Q562 657 588.5 617.5Q615 578 615 523V514Q615 466 597.0 435.0Q579 404 554.0 387.0Q529 370 506 363V346Q529 340 555.5 323.5Q582 307 600.5 275.5Q619 244 619 194V184Q619 127 591.5 85.5Q564 44 516.5 22.0Q469 0 407 0ZM260 109H393Q441 109 469.5 132.5Q498 156 498 199V208Q498 251 470.0 274.5Q442 298 393 298H260ZM260 407H392Q438 407 466.5 430.0Q495 453 495 494V504Q495 545 466.5 568.0Q438 591 392 591H260Z" transform="translate(97.000 52.000) scale(0.022085 -0.010000)"/>
    <path d="M69 0V700H190V109H518V0Z" transform="translate(111.642 52.000) scale(0.022085 -0.010000)"/>
    <path d="M337 -14Q207 -14 129.5 58.5Q52 131 52 267V433Q52 569 129.5 641.5Q207 714 337 714Q468 714 545.0 641.5Q622 569 622 433V267Q622 131 545.0 58.5Q468 -14 337 -14ZM337 94Q415 94 458.5 139.5Q502 185 502 263V437Q502 515 458.5 560.5Q415 606 337 606Q260 606 216.5 560.5Q173 515 173 437V263Q173 185 216.5 139.5Q260 94 337 94Z" transform="translate(123.634 52.000) scale(0.022085 -0.010000)"/>
    <path d="M337 -14Q207 -14 129.5 58.5Q52 131 52 267V433Q52 569 129.5 641.5Q207 714 337 714Q468 714 545.0 641.5Q622 569 622 433V267Q622 131 545.0 58.5Q468 -14 337 -14ZM337 94Q415 94 458.5 139.5Q502 185 502 263V437Q502 515 458.5 560.5Q415 606 337 606Q260 606 216.5 560.5Q173 515 173 437V263Q173 185 216.5 139.5Q260 94 337 94Z" transform="translate(138.519 52.000) scale(0.022085 -0.010000)"/>
    <path d="M46 0V106H140V594H46V700H331Q471 700 545.0 629.0Q619 558 619 416V284Q619 142 545.0 71.0Q471 0 331 0ZM260 109H332Q417 109 458.0 153.0Q499 197 499 280V419Q499 504 458.0 547.5Q417 591 332 591H260Z" transform="translate(153.404 52.000) scale(0.022085 -0.010000)"/>
    <path d="M129 0 32 700H151L227 83H244L342 700H551L649 83H666L741 700H861L763 0H554L455 629H438L338 0Z" transform="translate(173.722 52.000) scale(0.022085 -0.010000)"/>
    <path d="M337 -14Q207 -14 129.5 58.5Q52 131 52 267V433Q52 569 129.5 641.5Q207 714 337 714Q468 714 545.0 641.5Q622 569 622 433V267Q622 131 545.0 58.5Q468 -14 337 -14ZM337 94Q415 94 458.5 139.5Q502 185 502 263V437Q502 515 458.5 560.5Q415 606 337 606Q260 606 216.5 560.5Q173 515 173 437V263Q173 185 216.5 139.5Q260 94 337 94Z" transform="translate(193.421 52.000) scale(0.022085 -0.010000)"/>
    <path d="M69 0V700H368Q434 700 483.0 677.0Q532 654 559.5 612.5Q587 571 587 513V502Q587 437 556.0 398.0Q525 359 481 341V325Q520 323 542.5 298.0Q565 273 565 231V0H445V214Q445 239 431.5 254.5Q418 270 388 270H190V0ZM190 379H356Q408 379 437.5 406.5Q467 434 467 480V489Q467 536 438.0 563.5Q409 591 356 591H190Z" transform="translate(208.306 52.000) scale(0.022085 -0.010000)"/>
    <path d="M69 0V700H190V415H207L451 700H606L301 355L616 0H457L207 291H190V0Z" transform="translate(222.263 52.000) scale(0.022085 -0.010000)"/>
  </g>
  <g aria-label="INTELLIGENCE" fill="#7a8fa0">
    <path d="M69 0V700H190V0Z" transform="translate(97.000 66.000) scale(0.021385 -0.010000)"/>
    <path d="M69 0V700H299L464 81H480V700H599V0H370L205 619H188V0Z" transform="translate(102.539 66.000) scale(0.021385 -0.010000)"/>
    <path d="M234 0V591H25V700H563V591H354V0Z" transform="translate(116.824 66.000) scale(0.021385 -0.010000)"/>
    <path d="M69 0V700H515V591H190V407H487V298H190V109H520V0Z" transform="translate(129.398 66.000) scale(0.021385 -0.010000)"/>
    <path d="M69 0V700H190V109H518V0Z" transform="translate(141.288 66.000) scale(0.021385 -0.010000)"/>
    <path d="M69 0V700H190V109H518V0Z" transform="translate(152.899 66.000) scale(0.021385 -0.010000)"/>
    <path d="M69 0V700H190V0Z" transform="translate(164.511 66.000) scale(0.021385 -0.010000)"/>
    <path d="M312 -14Q238 -14 179.5 18.5Q121 51 86.5 113.5Q52 176 52 267V433Q52 569 128.0 641.5Q204 714 332 714Q460 714 529.0 645.5Q598 577 598 461V457H480V465Q480 505 464.0 537.0Q448 569 415.0 587.5Q382 606 332 606Q258 606 215.5 560.5Q173 515 173 435V265Q173 186 215.5 139.0Q258 92 334 92Q410 92 445.0 133.0Q480 174 480 238V250H303V352H598V0H488V69H471Q463 51 446.0 31.5Q429 12 397.5 -1.0Q366 -14 312 -14Z" transform="translate(170.050 66.000) scale(0.021385 -0.010000)"/>
    <path d="M69 0V700H515V591H190V407H487V298H190V109H520V0Z" transform="translate(184.185 66.000) scale(0.021385 -0.010000)"/>
    <path d="M69 0V700H299L464 81H480V700H599V0H370L205 619H188V0Z" transform="translate(196.075 66.000) scale(0.021385 -0.010000)"/>
    <path d="M332 -14Q204 -14 128.0 58.5Q52 131 52 267V433Q52 569 128.0 641.5Q204 714 332 714Q460 714 529.5 644.0Q599 574 599 452V446H481V455Q481 521 444.5 563.5Q408 606 332 606Q258 606 215.5 560.5Q173 515 173 435V265Q173 186 215.5 140.0Q258 94 332 94Q408 94 444.5 136.5Q481 179 481 245V262H599V248Q599 126 529.5 56.0Q460 -14 332 -14Z" transform="translate(210.360 66.000) scale(0.021385 -0.010000)"/>
    <path d="M69 0V700H515V591H190V407H487V298H190V109H520V0Z" transform="translate(224.110 66.000) scale(0.021385 -0.010000)"/>
  </g>
</svg>
